<svg id="visual" viewBox="0 0 1280 720" width="1280" height="720" xmlns="http://www.w3.org/2000/svg" xmlns:xlink="http://www.w3.org/1999/xlink" version="1.1"><g stroke-width="1" stroke-linejoin="bevel"><path d="M727.1 382L730.1 475L856.3 452Z" fill="#ece6e3" stroke="#ece6e3"></path><path d="M856.3 452L828.3 342L727.1 382Z" fill="#f5f5f5" stroke="#f5f5f5"></path><path d="M828.3 342L746.1 258L727.1 382Z" fill="#d9c9bf" stroke="#d9c9bf"></path><path d="M730.1 475L886.3 572L856.3 452Z" fill="#e2d7d1" stroke="#e2d7d1"></path><path d="M1022.6 465L991.6 391L856.3 452Z" fill="#9c755a" stroke="#9c755a"></path><path d="M856.3 452L991.6 391L828.3 342Z" fill="#b1907a" stroke="#b1907a"></path><path d="M828.3 342L891.3 210L746.1 258Z" fill="#bb9e8b" stroke="#bb9e8b"></path><path d="M557.9 512L677.1 604L730.1 475Z" fill="#b1907a" stroke="#b1907a"></path><path d="M730.1 475L677.1 604L886.3 572Z" fill="#cfbaad" stroke="#cfbaad"></path><path d="M557.9 512L730.1 475L538.9 387Z" fill="#e2d7d1" stroke="#e2d7d1"></path><path d="M886.3 572L1022.6 465L856.3 452Z" fill="#b1907a" stroke="#b1907a"></path><path d="M956.6 210L891.3 210L828.3 342Z" fill="#bb9e8b" stroke="#bb9e8b"></path><path d="M538.9 387L730.1 475L727.1 382Z" fill="#ece6e3" stroke="#ece6e3"></path><path d="M533.9 230L538.9 387L727.1 382Z" fill="#f5f5f5" stroke="#f5f5f5"></path><path d="M557.9 512L606.9 604L677.1 604Z" fill="#bb9e8b" stroke="#bb9e8b"></path><path d="M1144.8 252L956.6 210L991.6 391Z" fill="#b1907a" stroke="#b1907a"></path><path d="M991.6 391L956.6 210L828.3 342Z" fill="#d9c9bf" stroke="#d9c9bf"></path><path d="M863.3 720L996.6 634L886.3 572Z" fill="#f5f5f5" stroke="#f5f5f5"></path><path d="M886.3 572L996.6 634L1022.6 465Z" fill="#9c755a" stroke="#9c755a"></path><path d="M863.3 720L886.3 572L677.1 604Z" fill="#cfbaad" stroke="#cfbaad"></path><path d="M690.1 720L863.3 720L677.1 604Z" fill="#f5f5f5" stroke="#f5f5f5"></path><path d="M597.9 720L690.1 720L677.1 604Z" fill="#f5f5f5" stroke="#f5f5f5"></path><path d="M867.3 110L690.1 123L746.1 258Z" fill="#cfbaad" stroke="#cfbaad"></path><path d="M746.1 258L533.9 230L727.1 382Z" fill="#b1907a" stroke="#b1907a"></path><path d="M867.3 110L746.1 258L891.3 210Z" fill="#cfbaad" stroke="#cfbaad"></path><path d="M690.1 123L533.9 230L746.1 258Z" fill="#e2d7d1" stroke="#e2d7d1"></path><path d="M975.6 109L867.3 110L891.3 210Z" fill="#9c755a" stroke="#9c755a"></path><path d="M461.7 272L457.7 338L538.9 387Z" fill="#91684a" stroke="#91684a"></path><path d="M538.9 387L434.7 492L557.9 512Z" fill="#91684a" stroke="#91684a"></path><path d="M440.7 612L597.9 720L606.9 604Z" fill="#e2d7d1" stroke="#e2d7d1"></path><path d="M440.7 612L606.9 604L557.9 512Z" fill="#f5f5f5" stroke="#f5f5f5"></path><path d="M606.9 604L597.9 720L677.1 604Z" fill="#f5f5f5" stroke="#f5f5f5"></path><path d="M863.3 720L975.6 720L996.6 634Z" fill="#91684a" stroke="#91684a"></path><path d="M457.7 338L434.7 492L538.9 387Z" fill="#a6826a" stroke="#a6826a"></path><path d="M996.6 634L1134.8 509L1022.6 465Z" fill="#cfbaad" stroke="#cfbaad"></path><path d="M1022.6 465L1147.8 345L991.6 391Z" fill="#c5ac9c" stroke="#c5ac9c"></path><path d="M1176.8 594L1134.8 509L996.6 634Z" fill="#91684a" stroke="#91684a"></path><path d="M533.9 230L461.7 272L538.9 387Z" fill="#9c755a" stroke="#9c755a"></path><path d="M266.4 478L320.4 562L434.7 492Z" fill="#c5ac9c" stroke="#c5ac9c"></path><path d="M414.7 153L461.7 272L533.9 230Z" fill="#d9c9bf" stroke="#d9c9bf"></path><path d="M1136.8 111L975.6 109L956.6 210Z" fill="#c5ac9c" stroke="#c5ac9c"></path><path d="M956.6 210L975.6 109L891.3 210Z" fill="#ece6e3" stroke="#ece6e3"></path><path d="M1134.8 509L1147.8 345L1022.6 465Z" fill="#e2d7d1" stroke="#e2d7d1"></path><path d="M565.9 0L592.9 109L690.1 123Z" fill="#a6826a" stroke="#a6826a"></path><path d="M690.1 123L592.9 109L533.9 230Z" fill="#d9c9bf" stroke="#d9c9bf"></path><path d="M748.1 0L690.1 123L867.3 110Z" fill="#b1907a" stroke="#b1907a"></path><path d="M434.7 492L440.7 612L557.9 512Z" fill="#a6826a" stroke="#a6826a"></path><path d="M1147.8 345L1144.8 252L991.6 391Z" fill="#bb9e8b" stroke="#bb9e8b"></path><path d="M1104.8 720L1176.8 594L996.6 634Z" fill="#a6826a" stroke="#a6826a"></path><path d="M1134.8 509L1280 375L1147.8 345Z" fill="#a6826a" stroke="#a6826a"></path><path d="M1147.8 345L1280 220L1144.8 252Z" fill="#a6826a" stroke="#a6826a"></path><path d="M832.3 0L748.1 0L867.3 110Z" fill="#a6826a" stroke="#a6826a"></path><path d="M989.6 0L832.3 0L867.3 110Z" fill="#c5ac9c" stroke="#c5ac9c"></path><path d="M975.6 720L1104.8 720L996.6 634Z" fill="#bb9e8b" stroke="#bb9e8b"></path><path d="M440.7 612L436.7 720L597.9 720Z" fill="#e2d7d1" stroke="#e2d7d1"></path><path d="M284.4 720L436.7 720L440.7 612Z" fill="#ece6e3" stroke="#ece6e3"></path><path d="M592.9 109L414.7 153L533.9 230Z" fill="#ece6e3" stroke="#ece6e3"></path><path d="M461.7 272L299.4 277L457.7 338Z" fill="#c5ac9c" stroke="#c5ac9c"></path><path d="M434.7 492L320.4 562L440.7 612Z" fill="#a6826a" stroke="#a6826a"></path><path d="M447.7 0L414.7 153L592.9 109Z" fill="#a6826a" stroke="#a6826a"></path><path d="M1144.8 252L1136.8 111L956.6 210Z" fill="#cfbaad" stroke="#cfbaad"></path><path d="M975.6 109L989.6 0L867.3 110Z" fill="#ece6e3" stroke="#ece6e3"></path><path d="M1280 142L1136.8 111L1144.8 252Z" fill="#a6826a" stroke="#a6826a"></path><path d="M1123.8 0L989.6 0L975.6 109Z" fill="#e2d7d1" stroke="#e2d7d1"></path><path d="M748.1 0L565.9 0L690.1 123Z" fill="#b1907a" stroke="#b1907a"></path><path d="M266.4 478L434.7 492L246.4 394Z" fill="#a6826a" stroke="#a6826a"></path><path d="M1280 507L1280 375L1134.8 509Z" fill="#f5f5f5" stroke="#f5f5f5"></path><path d="M1176.8 594L1280 507L1134.8 509Z" fill="#e2d7d1" stroke="#e2d7d1"></path><path d="M1280 580L1280 507L1176.8 594Z" fill="#f5f5f5" stroke="#f5f5f5"></path><path d="M414.7 153L299.4 277L461.7 272Z" fill="#cfbaad" stroke="#cfbaad"></path><path d="M1280 720L1280 580L1176.8 594Z" fill="#ece6e3" stroke="#ece6e3"></path><path d="M246.4 394L434.7 492L457.7 338Z" fill="#ece6e3" stroke="#ece6e3"></path><path d="M1280 375L1280 220L1147.8 345Z" fill="#bb9e8b" stroke="#bb9e8b"></path><path d="M299.4 277L246.4 394L457.7 338Z" fill="#e2d7d1" stroke="#e2d7d1"></path><path d="M1280 0L1123.8 0L1136.8 111Z" fill="#9c755a" stroke="#9c755a"></path><path d="M1136.8 111L1123.8 0L975.6 109Z" fill="#bb9e8b" stroke="#bb9e8b"></path><path d="M565.9 0L447.7 0L592.9 109Z" fill="#b1907a" stroke="#b1907a"></path><path d="M414.7 153L299.4 107L299.4 277Z" fill="#cfbaad" stroke="#cfbaad"></path><path d="M1280 220L1280 142L1144.8 252Z" fill="#91684a" stroke="#91684a"></path><path d="M1104.8 720L1280 720L1176.8 594Z" fill="#9c755a" stroke="#9c755a"></path><path d="M161.2 617L320.4 562L266.4 478Z" fill="#bb9e8b" stroke="#bb9e8b"></path><path d="M161.2 617L284.4 720L320.4 562Z" fill="#d9c9bf" stroke="#d9c9bf"></path><path d="M320.4 562L284.4 720L440.7 612Z" fill="#9c755a" stroke="#9c755a"></path><path d="M299.4 277L161.2 342L246.4 394Z" fill="#b1907a" stroke="#b1907a"></path><path d="M447.7 0L299.4 107L414.7 153Z" fill="#f5f5f5" stroke="#f5f5f5"></path><path d="M148.2 241L161.2 342L299.4 277Z" fill="#f5f5f5" stroke="#f5f5f5"></path><path d="M246.4 394L108.2 477L266.4 478Z" fill="#9c755a" stroke="#9c755a"></path><path d="M447.7 0L301.4 0L299.4 107Z" fill="#d9c9bf" stroke="#d9c9bf"></path><path d="M299.4 107L148.2 241L299.4 277Z" fill="#b1907a" stroke="#b1907a"></path><path d="M1280 142L1280 0L1136.8 111Z" fill="#e2d7d1" stroke="#e2d7d1"></path><path d="M108.2 477L161.2 617L266.4 478Z" fill="#a6826a" stroke="#a6826a"></path><path d="M118.2 127L148.2 241L299.4 107Z" fill="#9c755a" stroke="#9c755a"></path><path d="M161.2 342L108.2 477L246.4 394Z" fill="#f5f5f5" stroke="#f5f5f5"></path><path d="M0 480L108.2 477L0 358Z" fill="#a6826a" stroke="#a6826a"></path><path d="M176.2 0L118.2 127L299.4 107Z" fill="#ece6e3" stroke="#ece6e3"></path><path d="M0 358L108.2 477L161.2 342Z" fill="#cfbaad" stroke="#cfbaad"></path><path d="M0 600L107.2 720L161.2 617Z" fill="#ece6e3" stroke="#ece6e3"></path><path d="M161.2 617L107.2 720L284.4 720Z" fill="#e2d7d1" stroke="#e2d7d1"></path><path d="M301.4 0L176.2 0L299.4 107Z" fill="#d9c9bf" stroke="#d9c9bf"></path><path d="M0 358L161.2 342L148.2 241Z" fill="#b1907a" stroke="#b1907a"></path><path d="M108.2 477L0 600L161.2 617Z" fill="#e2d7d1" stroke="#e2d7d1"></path><path d="M0 200L148.2 241L118.2 127Z" fill="#9c755a" stroke="#9c755a"></path><path d="M0 200L0 358L148.2 241Z" fill="#cfbaad" stroke="#cfbaad"></path><path d="M0 480L0 600L108.2 477Z" fill="#9c755a" stroke="#9c755a"></path><path d="M0 102L0 200L118.2 127Z" fill="#b1907a" stroke="#b1907a"></path><path d="M0 600L0 720L107.2 720Z" fill="#d9c9bf" stroke="#d9c9bf"></path><path d="M0 0L0 102L118.2 127Z" fill="#ece6e3" stroke="#ece6e3"></path><path d="M176.2 0L0 0L118.2 127Z" fill="#e2d7d1" stroke="#e2d7d1"></path></g></svg>