<svg id="visual" viewBox="0 0 1280 720" width="1280" height="720" xmlns="http://www.w3.org/2000/svg" xmlns:xlink="http://www.w3.org/1999/xlink" version="1.1"><path d="M0 87L116 87L116 87L233 87L233 95L349 95L349 102L465 102L465 123L582 123L582 51L698 51L698 109L815 109L815 59L931 59L931 59L1047 59L1047 102L1164 102L1164 116L1280 116L1280 95L1280 0L1280 0L1164 0L1164 0L1047 0L1047 0L931 0L931 0L815 0L815 0L698 0L698 0L582 0L582 0L465 0L465 0L349 0L349 0L233 0L233 0L116 0L116 0L0 0Z" fill="#91684a"></path><path d="M0 217L116 217L116 303L233 303L233 289L349 289L349 339L465 339L465 267L582 267L582 332L698 332L698 318L815 318L815 339L931 339L931 375L1047 375L1047 296L1164 296L1164 311L1280 311L1280 210L1280 93L1280 114L1164 114L1164 100L1047 100L1047 57L931 57L931 57L815 57L815 107L698 107L698 49L582 49L582 121L465 121L465 100L349 100L349 93L233 93L233 85L116 85L116 85L0 85Z" fill="#ac8972"></path><path d="M0 311L116 311L116 383L233 383L233 440L349 440L349 440L465 440L465 433L582 433L582 462L698 462L698 419L815 419L815 505L931 505L931 440L1047 440L1047 440L1164 440L1164 483L1280 483L1280 361L1280 208L1280 309L1164 309L1164 294L1047 294L1047 373L931 373L931 337L815 337L815 316L698 316L698 330L582 330L582 265L465 265L465 337L349 337L349 287L233 287L233 301L116 301L116 215L0 215Z" fill="#c5ac9c"></path><path d="M0 462L116 462L116 447L233 447L233 512L349 512L349 527L465 527L465 512L582 512L582 512L698 512L698 483L815 483L815 570L931 570L931 534L1047 534L1047 505L1164 505L1164 534L1280 534L1280 505L1280 359L1280 481L1164 481L1164 438L1047 438L1047 438L931 438L931 503L815 503L815 417L698 417L698 460L582 460L582 431L465 431L465 438L349 438L349 438L233 438L233 381L116 381L116 309L0 309Z" fill="#ddd0c8"></path><path d="M0 721L116 721L116 721L233 721L233 721L349 721L349 721L465 721L465 721L582 721L582 721L698 721L698 721L815 721L815 721L931 721L931 721L1047 721L1047 721L1164 721L1164 721L1280 721L1280 721L1280 503L1280 532L1164 532L1164 503L1047 503L1047 532L931 532L931 568L815 568L815 481L698 481L698 510L582 510L582 510L465 510L465 525L349 525L349 510L233 510L233 445L116 445L116 460L0 460Z" fill="#f5f5f5"></path></svg>