<svg id="visual" viewBox="0 0 900 600" width="900" height="600" xmlns="http://www.w3.org/2000/svg" xmlns:xlink="http://www.w3.org/1999/xlink" version="1.1"><path d="M0 55L30 61C60 67 120 79 180 88C240 97 300 103 360 103C420 103 480 97 540 91C600 85 660 79 720 78C780 77 840 81 870 83L900 85L900 0L870 0C840 0 780 0 720 0C660 0 600 0 540 0C480 0 420 0 360 0C300 0 240 0 180 0C120 0 60 0 30 0L0 0Z" fill="#876445"></path><path d="M0 253L30 264C60 275 120 297 180 292C240 287 300 255 360 235C420 215 480 207 540 223C600 239 660 279 720 279C780 279 840 239 870 219L900 199L900 83L870 81C840 79 780 75 720 76C660 77 600 83 540 89C480 95 420 101 360 101C300 101 240 95 180 86C120 77 60 65 30 59L0 53Z" fill="#9e7f65"></path><path d="M0 325L30 337C60 349 120 373 180 369C240 365 300 333 360 318C420 303 480 305 540 319C600 333 660 359 720 363C780 367 840 349 870 340L900 331L900 197L870 217C840 237 780 277 720 277C660 277 600 237 540 221C480 205 420 213 360 233C300 253 240 285 180 290C120 295 60 273 30 262L0 251Z" fill="#b49c87"></path><path d="M0 385L30 399C60 413 120 441 180 436C240 431 300 393 360 373C420 353 480 351 540 362C600 373 660 397 720 402C780 407 840 393 870 386L900 379L900 329L870 338C840 347 780 365 720 361C660 357 600 331 540 317C480 303 420 301 360 316C300 331 240 363 180 367C120 371 60 347 30 335L0 323Z" fill="#cab9ab"></path><path d="M0 451L30 460C60 469 120 487 180 480C240 473 300 441 360 429C420 417 480 425 540 436C600 447 660 461 720 464C780 467 840 459 870 455L900 451L900 377L870 384C840 391 780 405 720 400C660 395 600 371 540 360C480 349 420 351 360 371C300 391 240 429 180 434C120 439 60 411 30 397L0 383Z" fill="#e0d6cf"></path><path d="M0 601L30 601C60 601 120 601 180 601C240 601 300 601 360 601C420 601 480 601 540 601C600 601 660 601 720 601C780 601 840 601 870 601L900 601L900 449L870 453C840 457 780 465 720 462C660 459 600 445 540 434C480 423 420 415 360 427C300 439 240 471 180 478C120 485 60 467 30 458L0 449Z" fill="#f5f5f5"></path></svg>