<svg id="visual" viewBox="0 0 1280 720" width="1280" height="720" xmlns="http://www.w3.org/2000/svg" xmlns:xlink="http://www.w3.org/1999/xlink" version="1.1"><path d="M0 195L116 174L233 123L349 267L465 159L582 275L698 267L815 131L931 260L1047 289L1164 282L1280 195L1280 0L1164 0L1047 0L931 0L815 0L698 0L582 0L465 0L349 0L233 0L116 0L0 0Z" fill="#91684a"></path><path d="M0 325L116 275L233 253L349 440L465 303L582 332L698 462L815 231L931 354L1047 390L1164 368L1280 383L1280 193L1164 280L1047 287L931 258L815 129L698 265L582 273L465 157L349 265L233 121L116 172L0 193Z" fill="#ac8972"></path><path d="M0 469L116 426L233 354L349 498L465 447L582 469L698 527L815 354L931 433L1047 455L1164 512L1280 447L1280 381L1164 366L1047 388L931 352L815 229L698 460L582 330L465 301L349 438L233 251L116 273L0 323Z" fill="#c5ac9c"></path><path d="M0 519L116 483L233 397L349 620L465 527L582 577L698 599L815 411L931 483L1047 541L1164 584L1280 570L1280 445L1164 510L1047 453L931 431L815 352L698 525L582 467L465 445L349 496L233 352L116 424L0 467Z" fill="#ddd0c8"></path><path d="M0 721L116 721L233 721L349 721L465 721L582 721L698 721L815 721L931 721L1047 721L1164 721L1280 721L1280 568L1164 582L1047 539L931 481L815 409L698 597L582 575L465 525L349 618L233 395L116 481L0 517Z" fill="#f5f5f5"></path></svg>