<svg id="visual" viewBox="0 0 1280 720" width="1280" height="720" xmlns="http://www.w3.org/2000/svg" xmlns:xlink="http://www.w3.org/1999/xlink" version="1.1"><path d="M0 224L116 224L116 188L233 188L233 123L349 123L349 217L465 217L465 159L582 159L582 217L698 217L698 123L815 123L815 188L931 188L931 195L1047 195L1047 347L1164 347L1164 239L1280 239L1280 311L1280 0L1280 0L1164 0L1164 0L1047 0L1047 0L931 0L931 0L815 0L815 0L698 0L698 0L582 0L582 0L465 0L465 0L349 0L349 0L233 0L233 0L116 0L116 0L0 0Z" fill="#c38154"></path><path d="M0 325L116 325L116 275L233 275L233 224L349 224L349 339L465 339L465 246L582 246L582 303L698 303L698 167L815 167L815 239L931 239L931 275L1047 275L1047 390L1164 390L1164 361L1280 361L1280 426L1280 309L1280 237L1164 237L1164 345L1047 345L1047 193L931 193L931 186L815 186L815 121L698 121L698 215L582 215L582 157L465 157L465 215L349 215L349 121L233 121L233 186L116 186L116 222L0 222Z" fill="#d29d7a"></path><path d="M0 462L116 462L116 368L233 368L233 390L349 390L349 426L465 426L465 347L582 347L582 411L698 411L698 296L815 296L815 354L931 354L931 419L1047 419L1047 462L1164 462L1164 527L1280 527L1280 541L1280 424L1280 359L1164 359L1164 388L1047 388L1047 273L931 273L931 237L815 237L815 165L698 165L698 301L582 301L582 244L465 244L465 337L349 337L349 222L233 222L233 273L116 273L116 323L0 323Z" fill="#e0baa2"></path><path d="M0 663L116 663L116 671L233 671L233 656L349 656L349 663L465 663L465 599L582 599L582 663L698 663L698 584L815 584L815 613L931 613L931 663L1047 663L1047 599L1164 599L1164 663L1280 663L1280 649L1280 539L1280 525L1164 525L1164 460L1047 460L1047 417L931 417L931 352L815 352L815 294L698 294L698 409L582 409L582 345L465 345L465 424L349 424L349 388L233 388L233 366L116 366L116 460L0 460Z" fill="#ecd7cb"></path><path d="M0 721L116 721L116 721L233 721L233 721L349 721L349 721L465 721L465 721L582 721L582 721L698 721L698 721L815 721L815 721L931 721L931 721L1047 721L1047 721L1164 721L1164 721L1280 721L1280 721L1280 647L1280 661L1164 661L1164 597L1047 597L1047 661L931 661L931 611L815 611L815 582L698 582L698 661L582 661L582 597L465 597L465 661L349 661L349 654L233 654L233 669L116 669L116 661L0 661Z" fill="#f5f5f5"></path></svg>